<mxfile host="app.diagrams.net" agent="Mozilla/5.0 (Windows NT 10.0; Win64; x64; rv:134.0) Gecko/20100101 Firefox/134.0" version="26.0.6">
  <diagram id="C5RBs43oDa-KdzZeNtuy" name="Page-1">
    <mxGraphModel dx="2901" dy="1106" grid="1" gridSize="10" guides="1" tooltips="1" connect="1" arrows="1" fold="1" page="1" pageScale="1" pageWidth="827" pageHeight="1169" math="0" shadow="0">
      <root>
        <mxCell id="WIyWlLk6GJQsqaUBKTNV-0" />
        <mxCell id="WIyWlLk6GJQsqaUBKTNV-1" parent="WIyWlLk6GJQsqaUBKTNV-0" />
        <mxCell id="WIyWlLk6GJQsqaUBKTNV-4" value="" style="rounded=0;html=1;jettySize=auto;orthogonalLoop=1;fontSize=11;endArrow=block;endFill=0;endSize=8;strokeWidth=1;shadow=0;labelBackgroundColor=none;edgeStyle=orthogonalEdgeStyle;" parent="WIyWlLk6GJQsqaUBKTNV-1" source="WIyWlLk6GJQsqaUBKTNV-6" target="WIyWlLk6GJQsqaUBKTNV-10" edge="1">
          <mxGeometry y="20" relative="1" as="geometry">
            <mxPoint as="offset" />
          </mxGeometry>
        </mxCell>
        <mxCell id="WIyWlLk6GJQsqaUBKTNV-6" value="Multiple &lt;b&gt;Technological&lt;/b&gt; Capture pathways" style="rhombus;whiteSpace=wrap;html=1;shadow=0;fontFamily=Helvetica;fontSize=12;align=center;strokeWidth=1;spacing=6;spacingTop=-4;" parent="WIyWlLk6GJQsqaUBKTNV-1" vertex="1">
          <mxGeometry x="-130" y="227.5" width="170" height="165" as="geometry" />
        </mxCell>
        <mxCell id="WIyWlLk6GJQsqaUBKTNV-8" value="" style="rounded=0;html=1;jettySize=auto;orthogonalLoop=1;fontSize=11;endArrow=block;endFill=0;endSize=8;strokeWidth=1;shadow=0;labelBackgroundColor=none;edgeStyle=orthogonalEdgeStyle;" parent="WIyWlLk6GJQsqaUBKTNV-1" source="WIyWlLk6GJQsqaUBKTNV-10" target="WIyWlLk6GJQsqaUBKTNV-11" edge="1">
          <mxGeometry x="0.3333" y="20" relative="1" as="geometry">
            <mxPoint as="offset" />
          </mxGeometry>
        </mxCell>
        <mxCell id="WIyWlLk6GJQsqaUBKTNV-9" value="" style="edgeStyle=orthogonalEdgeStyle;rounded=0;html=1;jettySize=auto;orthogonalLoop=1;fontSize=11;endArrow=block;endFill=0;endSize=8;strokeWidth=1;shadow=0;labelBackgroundColor=none;" parent="WIyWlLk6GJQsqaUBKTNV-1" source="WIyWlLk6GJQsqaUBKTNV-10" target="WIyWlLk6GJQsqaUBKTNV-12" edge="1">
          <mxGeometry y="10" relative="1" as="geometry">
            <mxPoint as="offset" />
          </mxGeometry>
        </mxCell>
        <mxCell id="eJy9KGGvvpxnjVIqztkZ-12" value="&lt;div&gt;&lt;span style=&quot;color: rgb(255, 0, 0);&quot;&gt;which processes?&lt;/span&gt;&lt;/div&gt;&lt;div&gt;&lt;span style=&quot;color: rgb(255, 0, 0);&quot;&gt;- FT&lt;/span&gt;&lt;/div&gt;&lt;div&gt;&lt;span style=&quot;color: rgb(255, 0, 0);&quot;&gt;-Sabatier&lt;/span&gt;&lt;/div&gt;&lt;div&gt;&lt;span style=&quot;color: rgb(255, 0, 0);&quot;&gt;-methanolisation&lt;/span&gt;&lt;/div&gt;&lt;div&gt;&lt;span style=&quot;color: rgb(255, 0, 0);&quot;&gt;-breakthrough?&lt;br&gt;&lt;/span&gt;&lt;/div&gt;" style="edgeLabel;html=1;align=center;verticalAlign=middle;resizable=0;points=[];" vertex="1" connectable="0" parent="WIyWlLk6GJQsqaUBKTNV-9">
          <mxGeometry x="-0.15" y="-1" relative="1" as="geometry">
            <mxPoint x="9" y="-31" as="offset" />
          </mxGeometry>
        </mxCell>
        <mxCell id="eJy9KGGvvpxnjVIqztkZ-0" style="edgeStyle=orthogonalEdgeStyle;rounded=0;orthogonalLoop=1;jettySize=auto;html=1;exitX=0.5;exitY=0;exitDx=0;exitDy=0;entryX=0;entryY=0.5;entryDx=0;entryDy=0;" edge="1" parent="WIyWlLk6GJQsqaUBKTNV-1" source="WIyWlLk6GJQsqaUBKTNV-10" target="eJy9KGGvvpxnjVIqztkZ-1">
          <mxGeometry relative="1" as="geometry">
            <mxPoint x="280" y="190" as="targetPoint" />
          </mxGeometry>
        </mxCell>
        <mxCell id="eJy9KGGvvpxnjVIqztkZ-21" style="edgeStyle=orthogonalEdgeStyle;rounded=0;orthogonalLoop=1;jettySize=auto;html=1;exitX=0.636;exitY=0.83;exitDx=0;exitDy=0;exitPerimeter=0;entryX=0.5;entryY=0;entryDx=0;entryDy=0;" edge="1" parent="WIyWlLk6GJQsqaUBKTNV-1" source="WIyWlLk6GJQsqaUBKTNV-10" target="eJy9KGGvvpxnjVIqztkZ-22">
          <mxGeometry relative="1" as="geometry">
            <mxPoint x="260" y="590" as="targetPoint" />
            <Array as="points">
              <mxPoint x="219" y="440" />
              <mxPoint x="300" y="440" />
            </Array>
          </mxGeometry>
        </mxCell>
        <mxCell id="WIyWlLk6GJQsqaUBKTNV-10" value="&lt;div&gt;&lt;b&gt;v_co2capture&lt;/b&gt;&lt;/div&gt;&lt;div&gt;&lt;i&gt;co2 in tank&lt;b&gt;&lt;br&gt;&lt;/b&gt;&lt;/i&gt;&lt;/div&gt;" style="rhombus;whiteSpace=wrap;html=1;shadow=0;fontFamily=Helvetica;fontSize=12;align=center;strokeWidth=1;spacing=6;spacingTop=-4;" parent="WIyWlLk6GJQsqaUBKTNV-1" vertex="1">
          <mxGeometry x="130" y="260" width="140" height="100" as="geometry" />
        </mxCell>
        <mxCell id="WIyWlLk6GJQsqaUBKTNV-11" value="Geological Storage" style="rounded=1;whiteSpace=wrap;html=1;fontSize=12;glass=0;strokeWidth=1;shadow=0;fillColor=#a0522d;fontColor=#ffffff;strokeColor=#6D1F00;" parent="WIyWlLk6GJQsqaUBKTNV-1" vertex="1">
          <mxGeometry x="140" y="790" width="120" height="40" as="geometry" />
        </mxCell>
        <mxCell id="eJy9KGGvvpxnjVIqztkZ-5" style="edgeStyle=orthogonalEdgeStyle;rounded=0;orthogonalLoop=1;jettySize=auto;html=1;entryX=0;entryY=0.25;entryDx=0;entryDy=0;exitX=0.692;exitY=1;exitDx=0;exitDy=0;exitPerimeter=0;strokeColor=#FF0000;" edge="1" parent="WIyWlLk6GJQsqaUBKTNV-1" source="WIyWlLk6GJQsqaUBKTNV-12" target="eJy9KGGvvpxnjVIqztkZ-4">
          <mxGeometry relative="1" as="geometry" />
        </mxCell>
        <mxCell id="eJy9KGGvvpxnjVIqztkZ-14" value="&lt;span style=&quot;color: rgb(255, 0, 0);&quot;&gt;what are important transformation processes?&lt;br&gt;&lt;/span&gt;" style="edgeLabel;html=1;align=center;verticalAlign=middle;resizable=0;points=[];" vertex="1" connectable="0" parent="eJy9KGGvvpxnjVIqztkZ-5">
          <mxGeometry x="0.1733" y="-2" relative="1" as="geometry">
            <mxPoint y="-14" as="offset" />
          </mxGeometry>
        </mxCell>
        <mxCell id="eJy9KGGvvpxnjVIqztkZ-7" style="edgeStyle=orthogonalEdgeStyle;rounded=0;orthogonalLoop=1;jettySize=auto;html=1;exitX=0.75;exitY=0;exitDx=0;exitDy=0;" edge="1" parent="WIyWlLk6GJQsqaUBKTNV-1" source="WIyWlLk6GJQsqaUBKTNV-12" target="eJy9KGGvvpxnjVIqztkZ-6">
          <mxGeometry relative="1" as="geometry">
            <mxPoint x="480" y="270" as="sourcePoint" />
          </mxGeometry>
        </mxCell>
        <mxCell id="WIyWlLk6GJQsqaUBKTNV-12" value="CCU/Synfuels" style="rounded=1;whiteSpace=wrap;html=1;fontSize=12;glass=0;strokeWidth=1;shadow=0;" parent="WIyWlLk6GJQsqaUBKTNV-1" vertex="1">
          <mxGeometry x="390" y="290" width="120" height="40" as="geometry" />
        </mxCell>
        <mxCell id="eJy9KGGvvpxnjVIqztkZ-1" value="&lt;div&gt;&lt;b&gt;v_co2capturevalve&lt;/b&gt;&lt;/div&gt;" style="rounded=1;whiteSpace=wrap;html=1;fontSize=12;glass=0;strokeWidth=1;shadow=0;" vertex="1" parent="WIyWlLk6GJQsqaUBKTNV-1">
          <mxGeometry x="300" y="190" width="120" height="40" as="geometry" />
        </mxCell>
        <mxCell id="eJy9KGGvvpxnjVIqztkZ-2" value="Atmosphere" style="rounded=1;whiteSpace=wrap;html=1;fontSize=12;glass=0;strokeWidth=1;shadow=0;fillColor=#dae8fc;strokeColor=#6c8ebf;" vertex="1" parent="WIyWlLk6GJQsqaUBKTNV-1">
          <mxGeometry x="300" y="40" width="120" height="40" as="geometry" />
        </mxCell>
        <mxCell id="eJy9KGGvvpxnjVIqztkZ-4" value="&lt;div&gt;&lt;b&gt;Plastics&lt;/b&gt;&lt;/div&gt;&lt;div&gt;- assumed lifetime?&lt;/div&gt;&lt;div&gt;- what distinguishes plastics/chemical industry, is there more than just plastics?&amp;nbsp; &lt;br&gt;&lt;/div&gt;&lt;div&gt;&lt;br&gt;&lt;/div&gt;" style="rounded=1;whiteSpace=wrap;html=1;fontSize=12;glass=0;strokeWidth=1;shadow=0;" vertex="1" parent="WIyWlLk6GJQsqaUBKTNV-1">
          <mxGeometry x="660" y="350" width="150" height="130" as="geometry" />
        </mxCell>
        <mxCell id="eJy9KGGvvpxnjVIqztkZ-6" value="Back to Energy Mix, be careful to not count emissions twice?" style="rounded=1;whiteSpace=wrap;html=1;fontSize=12;glass=0;strokeWidth=1;shadow=0;" vertex="1" parent="WIyWlLk6GJQsqaUBKTNV-1">
          <mxGeometry x="640" y="240" width="140" height="60" as="geometry" />
        </mxCell>
        <mxCell id="eJy9KGGvvpxnjVIqztkZ-9" style="edgeStyle=orthogonalEdgeStyle;rounded=0;orthogonalLoop=1;jettySize=auto;html=1;entryX=0.2;entryY=0.95;entryDx=0;entryDy=0;strokeColor=#FF0000;entryPerimeter=0;" edge="1" parent="WIyWlLk6GJQsqaUBKTNV-1" source="eJy9KGGvvpxnjVIqztkZ-8" target="WIyWlLk6GJQsqaUBKTNV-12">
          <mxGeometry relative="1" as="geometry" />
        </mxCell>
        <mxCell id="eJy9KGGvvpxnjVIqztkZ-18" value="how does this work?" style="edgeLabel;html=1;align=center;verticalAlign=middle;resizable=0;points=[];" vertex="1" connectable="0" parent="eJy9KGGvvpxnjVIqztkZ-9">
          <mxGeometry x="-0.4737" y="-1" relative="1" as="geometry">
            <mxPoint as="offset" />
          </mxGeometry>
        </mxCell>
        <mxCell id="eJy9KGGvvpxnjVIqztkZ-10" style="edgeStyle=orthogonalEdgeStyle;rounded=0;orthogonalLoop=1;jettySize=auto;html=1;entryX=0;entryY=0.75;entryDx=0;entryDy=0;exitX=1;exitY=0.5;exitDx=0;exitDy=0;strokeColor=#FF0000;" edge="1" parent="WIyWlLk6GJQsqaUBKTNV-1" source="eJy9KGGvvpxnjVIqztkZ-8" target="eJy9KGGvvpxnjVIqztkZ-4">
          <mxGeometry relative="1" as="geometry">
            <mxPoint x="480" y="370" as="sourcePoint" />
          </mxGeometry>
        </mxCell>
        <mxCell id="eJy9KGGvvpxnjVIqztkZ-13" value="&lt;span style=&quot;color: rgb(255, 0, 0);&quot;&gt;is there a direct process?&lt;br&gt;&lt;/span&gt;" style="edgeLabel;html=1;align=center;verticalAlign=middle;resizable=0;points=[];" vertex="1" connectable="0" parent="eJy9KGGvvpxnjVIqztkZ-10">
          <mxGeometry x="0.1873" y="4" relative="1" as="geometry">
            <mxPoint x="-15" y="17" as="offset" />
          </mxGeometry>
        </mxCell>
        <mxCell id="eJy9KGGvvpxnjVIqztkZ-19" style="edgeStyle=orthogonalEdgeStyle;rounded=0;orthogonalLoop=1;jettySize=auto;html=1;entryX=0.5;entryY=0;entryDx=0;entryDy=0;" edge="1" parent="WIyWlLk6GJQsqaUBKTNV-1" source="eJy9KGGvvpxnjVIqztkZ-8" target="eJy9KGGvvpxnjVIqztkZ-20">
          <mxGeometry relative="1" as="geometry">
            <mxPoint x="500" y="730" as="targetPoint" />
          </mxGeometry>
        </mxCell>
        <mxCell id="eJy9KGGvvpxnjVIqztkZ-8" value="&lt;div&gt;&lt;b&gt;Biomass&lt;/b&gt;&lt;/div&gt;&lt;div&gt;&lt;br&gt;&lt;/div&gt;&lt;div&gt;- what does this include? &lt;br&gt;&lt;/div&gt;&lt;div&gt;&#39;valuable biomass&#39; as used for buildings? or just things to be turned into biogas etc.&lt;br&gt;&lt;/div&gt;" style="rounded=1;whiteSpace=wrap;html=1;fontSize=12;glass=0;strokeWidth=1;shadow=0;" vertex="1" parent="WIyWlLk6GJQsqaUBKTNV-1">
          <mxGeometry x="390" y="520" width="160" height="100" as="geometry" />
        </mxCell>
        <mxCell id="eJy9KGGvvpxnjVIqztkZ-15" style="edgeStyle=orthogonalEdgeStyle;rounded=0;orthogonalLoop=1;jettySize=auto;html=1;exitX=1;exitY=1;exitDx=0;exitDy=0;strokeColor=#FF0000;" edge="1" parent="WIyWlLk6GJQsqaUBKTNV-1" source="WIyWlLk6GJQsqaUBKTNV-10" target="eJy9KGGvvpxnjVIqztkZ-4">
          <mxGeometry relative="1" as="geometry">
            <Array as="points">
              <mxPoint x="240" y="335" />
              <mxPoint x="240" y="420" />
            </Array>
          </mxGeometry>
        </mxCell>
        <mxCell id="eJy9KGGvvpxnjVIqztkZ-17" value="&lt;span style=&quot;color: rgb(255, 0, 0);&quot;&gt;direct process even?&lt;br&gt;&lt;/span&gt;" style="edgeLabel;html=1;align=center;verticalAlign=middle;resizable=0;points=[];" vertex="1" connectable="0" parent="eJy9KGGvvpxnjVIqztkZ-15">
          <mxGeometry x="-0.1529" y="2" relative="1" as="geometry">
            <mxPoint x="-26" y="-8" as="offset" />
          </mxGeometry>
        </mxCell>
        <mxCell id="eJy9KGGvvpxnjVIqztkZ-20" value="What are other potential options?" style="rounded=1;whiteSpace=wrap;html=1;fontSize=12;glass=0;strokeWidth=1;shadow=0;" vertex="1" parent="WIyWlLk6GJQsqaUBKTNV-1">
          <mxGeometry x="400" y="690" width="120" height="40" as="geometry" />
        </mxCell>
        <mxCell id="eJy9KGGvvpxnjVIqztkZ-22" value="&lt;span style=&quot;color: rgb(255, 0, 0);&quot;&gt;Other options?&lt;br&gt;&lt;/span&gt;" style="rounded=1;whiteSpace=wrap;html=1;fontSize=12;glass=0;strokeWidth=1;shadow=0;" vertex="1" parent="WIyWlLk6GJQsqaUBKTNV-1">
          <mxGeometry x="240" y="470" width="120" height="40" as="geometry" />
        </mxCell>
        <mxCell id="eJy9KGGvvpxnjVIqztkZ-23" value="Research Questions: &lt;br&gt;&lt;div&gt;- In a world with limit CCS, what are viable options for captured CO2/is it better to not capture it in the first place?&lt;/div&gt;&lt;div&gt;- in a world with limited biomass, and limited CCS, but high DACC/BECC, is there a path for midterm co2 storage?&lt;br&gt; &lt;/div&gt;" style="text;html=1;align=center;verticalAlign=middle;resizable=0;points=[];autosize=1;strokeColor=none;fillColor=none;" vertex="1" parent="WIyWlLk6GJQsqaUBKTNV-1">
          <mxGeometry y="880" width="630" height="60" as="geometry" />
        </mxCell>
        <mxCell id="eJy9KGGvvpxnjVIqztkZ-24" value="&lt;b&gt;Midterm Storage? (Buildings, Underground Storage, Peatlands?)&lt;br&gt;&lt;/b&gt;" style="rounded=1;whiteSpace=wrap;html=1;fontSize=12;glass=0;strokeWidth=1;shadow=0;" vertex="1" parent="WIyWlLk6GJQsqaUBKTNV-1">
          <mxGeometry x="620" y="610" width="160" height="100" as="geometry" />
        </mxCell>
        <mxCell id="eJy9KGGvvpxnjVIqztkZ-25" style="edgeStyle=orthogonalEdgeStyle;rounded=0;orthogonalLoop=1;jettySize=auto;html=1;entryX=0.006;entryY=0.66;entryDx=0;entryDy=0;entryPerimeter=0;" edge="1" parent="WIyWlLk6GJQsqaUBKTNV-1" source="eJy9KGGvvpxnjVIqztkZ-8" target="eJy9KGGvvpxnjVIqztkZ-24">
          <mxGeometry relative="1" as="geometry" />
        </mxCell>
        <mxCell id="eJy9KGGvvpxnjVIqztkZ-28" style="edgeStyle=orthogonalEdgeStyle;rounded=0;orthogonalLoop=1;jettySize=auto;html=1;entryX=0;entryY=0.5;entryDx=0;entryDy=0;" edge="1" parent="WIyWlLk6GJQsqaUBKTNV-1" source="eJy9KGGvvpxnjVIqztkZ-27" target="eJy9KGGvvpxnjVIqztkZ-8">
          <mxGeometry relative="1" as="geometry" />
        </mxCell>
        <mxCell id="eJy9KGGvvpxnjVIqztkZ-29" value="is&amp;nbsp; this true like this? " style="edgeLabel;html=1;align=center;verticalAlign=middle;resizable=0;points=[];" vertex="1" connectable="0" parent="eJy9KGGvvpxnjVIqztkZ-28">
          <mxGeometry x="-0.4595" relative="1" as="geometry">
            <mxPoint as="offset" />
          </mxGeometry>
        </mxCell>
        <mxCell id="eJy9KGGvvpxnjVIqztkZ-27" value="Multiple &lt;b&gt;Natural&lt;/b&gt; Capture pathways" style="rhombus;whiteSpace=wrap;html=1;shadow=0;fontFamily=Helvetica;fontSize=12;align=center;strokeWidth=1;spacing=6;spacingTop=-4;" vertex="1" parent="WIyWlLk6GJQsqaUBKTNV-1">
          <mxGeometry x="-190" y="407.5" width="170" height="165" as="geometry" />
        </mxCell>
        <mxCell id="eJy9KGGvvpxnjVIqztkZ-31" style="edgeStyle=orthogonalEdgeStyle;rounded=0;orthogonalLoop=1;jettySize=auto;html=1;entryX=0.25;entryY=0;entryDx=0;entryDy=0;" edge="1" parent="WIyWlLk6GJQsqaUBKTNV-1" source="eJy9KGGvvpxnjVIqztkZ-30" target="WIyWlLk6GJQsqaUBKTNV-11">
          <mxGeometry relative="1" as="geometry" />
        </mxCell>
        <mxCell id="eJy9KGGvvpxnjVIqztkZ-32" value="&lt;div&gt;EW&lt;/div&gt;&lt;div&gt;OAE??&lt;br&gt;&lt;/div&gt;" style="edgeLabel;html=1;align=center;verticalAlign=middle;resizable=0;points=[];" vertex="1" connectable="0" parent="eJy9KGGvvpxnjVIqztkZ-31">
          <mxGeometry x="-0.2183" y="1" relative="1" as="geometry">
            <mxPoint x="-8" y="19" as="offset" />
          </mxGeometry>
        </mxCell>
        <mxCell id="eJy9KGGvvpxnjVIqztkZ-35" style="edgeStyle=orthogonalEdgeStyle;rounded=0;orthogonalLoop=1;jettySize=auto;html=1;entryX=0;entryY=0.75;entryDx=0;entryDy=0;exitX=0.875;exitY=0.362;exitDx=0;exitDy=0;exitPerimeter=0;" edge="1" parent="WIyWlLk6GJQsqaUBKTNV-1" source="eJy9KGGvvpxnjVIqztkZ-30" target="eJy9KGGvvpxnjVIqztkZ-8">
          <mxGeometry relative="1" as="geometry" />
        </mxCell>
        <mxCell id="eJy9KGGvvpxnjVIqztkZ-36" value="LULUCF??&lt;br&gt;AF/RF, however you call it? " style="edgeLabel;html=1;align=center;verticalAlign=middle;resizable=0;points=[];" vertex="1" connectable="0" parent="eJy9KGGvvpxnjVIqztkZ-35">
          <mxGeometry x="-0.6489" y="2" relative="1" as="geometry">
            <mxPoint y="-15" as="offset" />
          </mxGeometry>
        </mxCell>
        <mxCell id="eJy9KGGvvpxnjVIqztkZ-30" value="Multiple &lt;b&gt;Naturally Enhanced&lt;/b&gt; Capture pathways" style="rhombus;whiteSpace=wrap;html=1;shadow=0;fontFamily=Helvetica;fontSize=12;align=center;strokeWidth=1;spacing=6;spacingTop=-4;" vertex="1" parent="WIyWlLk6GJQsqaUBKTNV-1">
          <mxGeometry x="-240" y="580" width="200" height="185" as="geometry" />
        </mxCell>
        <mxCell id="eJy9KGGvvpxnjVIqztkZ-33" value="" style="endArrow=classic;html=1;rounded=0;exitX=1;exitY=0;exitDx=0;exitDy=0;strokeColor=#FF0000;" edge="1" parent="WIyWlLk6GJQsqaUBKTNV-1" source="eJy9KGGvvpxnjVIqztkZ-30" target="WIyWlLk6GJQsqaUBKTNV-10">
          <mxGeometry width="50" height="50" relative="1" as="geometry">
            <mxPoint x="390" y="560" as="sourcePoint" />
            <mxPoint x="440" y="510" as="targetPoint" />
          </mxGeometry>
        </mxCell>
        <mxCell id="eJy9KGGvvpxnjVIqztkZ-34" value="&lt;span style=&quot;color: rgb(255, 0, 0);&quot;&gt;????&lt;/span&gt;" style="edgeLabel;html=1;align=center;verticalAlign=middle;resizable=0;points=[];" vertex="1" connectable="0" parent="eJy9KGGvvpxnjVIqztkZ-33">
          <mxGeometry x="0.5116" y="3" relative="1" as="geometry">
            <mxPoint as="offset" />
          </mxGeometry>
        </mxCell>
        <mxCell id="eJy9KGGvvpxnjVIqztkZ-37" value="Fundamental Questions: &lt;br&gt;- what does the plasitcs" style="text;html=1;align=center;verticalAlign=middle;resizable=0;points=[];autosize=1;strokeColor=none;fillColor=none;" vertex="1" parent="WIyWlLk6GJQsqaUBKTNV-1">
          <mxGeometry x="-15" y="993" width="150" height="40" as="geometry" />
        </mxCell>
      </root>
    </mxGraphModel>
  </diagram>
</mxfile>
